<?xml version="1.0" encoding="utf-8"?>
<!-- Generator: Adobe Illustrator 16.0.0, SVG Export Plug-In . SVG Version: 6.00 Build 0)  -->
<!DOCTYPE svg PUBLIC "-//W3C//DTD SVG 1.0//EN" "http://www.w3.org/TR/2001/REC-SVG-20010904/DTD/svg10.dtd">
<svg version="1.0" id="레이어_1" xmlns="http://www.w3.org/2000/svg" xmlns:xlink="http://www.w3.org/1999/xlink" x="0px"
	 y="0px" width="1250px" height="450px" viewBox="0 0 1250 450" enable-background="new 0 0 1250 450" xml:space="preserve">
<g>
	<g>
		<g>
			<g>
				<g>
					<g>
						<path fill="#B32A2A" d="M1116.87,301.408c-56.959,0-104.535-47.58-104.535-104.539s47.576-103.447,104.535-103.447
							s103.447,46.488,103.447,103.447S1173.829,301.408,1116.87,301.408z M1116.87,137.014c-33.662,0-60.402,27.285-60.402,59.855
							c0,33.664,26.74,60.4,60.402,60.4c32.57,0,59.309-26.736,59.309-60.4C1176.179,164.299,1149.44,137.014,1116.87,137.014z"/>
					</g>
				</g>
			</g>
			<g>
				<g>
					<g>
						<path fill="#B32A2A" d="M887.976,301.418c-56.959,0-103.447-46.488-103.447-103.993V93.431h44.141v103.994
							c0,33.118,26.736,59.853,59.307,59.853c33.664,0,60.402-26.734,60.402-59.853V93.431h44.139v103.994
							C992.517,254.93,946.03,301.418,887.976,301.418z"/>
					</g>
				</g>
			</g>
			<g>
				<g>
					<g>
						<path fill="#B32A2A" d="M306.901,300.309h-43.592V196.86c0-33.117-27.285-59.855-59.857-59.855
							c-33.115,0-60.4,26.739-60.4,59.855v103.448H99.46V196.86c0-56.959,46.487-103.447,103.991-103.447
							c56.962,0,103.45,46.488,103.45,103.447V300.309z"/>
					</g>
				</g>
			</g>
			<g>
				<g>
					<g>
						<rect x="1012.335" y="196.869" fill="#B32A2A" width="44.133" height="180.113"/>
					</g>
				</g>
			</g>
			<g>
				<g>
					<g>
						<rect x="30.32" y="93.442" fill="#B32A2A" width="43.591" height="206.866"/>
					</g>
				</g>
			</g>
			<g>
				<g>
					<g>
						<path fill="#B32A2A" d="M660.177,301.408c-57.506,0-103.995-47.58-103.995-104.539S602.671,93.422,660.177,93.422
							c56.959,0,103.447,46.488,103.447,103.447v22.069H604.395c8.753,22.091,30.229,38.331,55.782,38.331
							c15.137,0,30.227-5.818,41.822-17.395l30.227,31.387C712.489,290.957,686.921,301.408,660.177,301.408z M604.395,175.347
							H715.96c-9.266-22.638-30.23-38.333-55.783-38.333S613.147,152.709,604.395,175.347z"/>
					</g>
				</g>
			</g>
			<g>
				<g>
					<g>
						<path fill="#B32A2A" d="M431.816,301.408c-57.507,0-103.995-47.58-103.995-104.539S374.309,93.422,431.816,93.422
							c56.959,0,103.446,46.488,103.446,103.447S488.775,301.408,431.816,301.408z M431.816,137.014
							c-33.117,0-59.858,27.285-59.858,59.855c0,33.664,26.741,60.4,59.858,60.4c33.115,0,59.854-26.736,59.854-60.4
							C491.67,164.299,464.931,137.014,431.816,137.014z"/>
					</g>
				</g>
			</g>
			<g>
				<g>
					<g>
						<rect x="491.67" y="17.303" fill="#B32A2A" width="43.591" height="179.566"/>
					</g>
				</g>
			</g>
			<g>
				<g>
					<path fill="#B32A2A" d="M74.458,38.796c0,11.649-9.872,21.526-22.068,21.526c-12.198,0-22.072-9.876-22.072-21.526
						c0-12.196,9.874-22.071,22.072-22.071C64.585,16.725,74.458,26.6,74.458,38.796z"/>
				</g>
			</g>
		</g>
	</g>
	<text transform="matrix(1 0 0 1 683.0234 415.6289)" fill="#080304" font-family="'NanumSquareEB'" font-size="115">인디업</text>
</g>
</svg>
