<?xml version="1.0" encoding="UTF-8"?>
<svg id="_ë ì´ì´_1" data-name="ë ì´ì´ 1" xmlns="http://www.w3.org/2000/svg" viewBox="0 0 164.26 29.94">
  <defs>
    <style>
      .cls-1 {
        fill: #221f20;
      }

      .cls-2 {
        fill: #040000;
      }

      .cls-3 {
        fill: #211e1f;
      }
    </style>
  </defs>
  <g>
    <g>
      <path class="cls-1" d="M90.29,23.6c-4.77,0-8.64-3.87-8.64-8.62s3.87-8.64,8.64-8.64,8.64,3.87,8.64,8.64-3.87,8.62-8.64,8.62Zm0-13.61c-2.77,0-5,2.26-5,4.99s2.23,4.99,5,4.99,4.96-2.25,4.96-4.99-2.25-4.99-4.96-4.99Z"/>
      <path class="cls-1" d="M71.31,23.62c-4.76,0-8.62-3.87-8.62-8.64V6.38h3.64V14.98c0,2.77,2.22,4.99,4.98,4.99s4.98-2.23,4.98-4.99V6.38h3.63V14.98c0,4.77-3.86,8.64-8.61,8.64Z"/>
      <path class="cls-1" d="M22.99,23.59h-3.64V14.98c0-2.76-2.24-4.99-4.99-4.99s-4.97,2.22-4.97,4.99v8.61h-3.64V14.98c0-4.76,3.87-8.63,8.61-8.63s8.63,3.87,8.63,8.63v8.61Z"/>
      <rect class="cls-1" x="81.65" y="14.98" width="3.63" height="14.95"/>
      <rect class="cls-1" x=".01" y="6.38" width="3.63" height="17.21"/>
      <path class="cls-1" d="M52.35,23.6c-4.77,0-8.64-3.87-8.64-8.62s3.87-8.64,8.64-8.64,8.63,3.87,8.63,8.64v1.8h-13.27c.73,1.87,2.54,3.18,4.64,3.18,1.29,0,2.51-.51,3.45-1.41l2.54,2.63c-1.62,1.56-3.74,2.42-5.99,2.42Zm-4.64-10.45h9.28c-.74-1.84-2.55-3.16-4.64-3.16s-3.91,1.32-4.64,3.16Z"/>
      <path class="cls-1" d="M33.35,23.6c-4.75,0-8.62-3.87-8.62-8.62s3.87-8.64,8.62-8.64,8.62,3.87,8.62,8.64-3.87,8.62-8.62,8.62Zm0-13.61c-2.75,0-4.98,2.26-4.98,4.99s2.23,4.99,4.98,4.99,4.98-2.25,4.98-4.99-2.22-4.99-4.98-4.99Z"/>
      <rect class="cls-1" x="38.33" y=".03" width="3.64" height="14.95"/>
      <path class="cls-1" d="M3.66,1.81c0,1-.83,1.84-1.83,1.84S0,2.8,0,1.81,.83,0,1.83,0s1.83,.81,1.83,1.81Z"/>
    </g>
    <rect class="cls-2" x="105.05" y="1.52" width=".32" height="26.95"/>
  </g>
  <g>
    <path class="cls-3" d="M111.95,9.51c0-.48,.1-.98,.29-1.5,.2-.53,.5-1,.9-1.44,.41-.43,.91-.79,1.51-1.07,.6-.28,1.32-.42,2.14-.42s1.52,.14,2.13,.42c.61,.28,1.12,.64,1.52,1.07,.41,.43,.71,.91,.9,1.44,.2,.52,.29,1.03,.29,1.5v1.09c0,.48-.1,.98-.29,1.5-.2,.52-.5,1-.9,1.44-.41,.43-.91,.79-1.52,1.07-.61,.28-1.32,.42-2.13,.42s-1.54-.14-2.14-.42c-.6-.28-1.11-.64-1.51-1.07-.41-.43-.71-.91-.9-1.44-.2-.52-.29-1.03-.29-1.5v-1.09Zm7.71,.08c0-.32-.05-.64-.17-.97-.11-.32-.28-.61-.51-.87-.23-.26-.53-.47-.88-.63-.36-.16-.79-.24-1.29-.24s-.94,.08-1.3,.24c-.36,.16-.66,.37-.89,.63-.23,.26-.4,.55-.5,.87-.1,.32-.16,.64-.16,.97v.92c0,.32,.05,.64,.17,.97,.11,.32,.28,.61,.51,.87,.23,.26,.53,.47,.88,.63,.36,.16,.79,.24,1.29,.24s.94-.08,1.29-.24c.36-.16,.65-.37,.88-.63,.23-.26,.4-.55,.51-.87,.11-.32,.17-.64,.17-.97v-.92Zm-2.5,12.05h10.42v1.81h-12.5v-6.43h2.08v4.62Zm7.96-3.53V4.3h2.06v13.82h-2.06Z"/>
    <path class="cls-3" d="M140.16,7.85h-7.08v8.9h1.32c1.37,0,2.66-.05,3.86-.15,1.21-.1,2.37-.24,3.51-.44l.25,1.79c-1.06,.21-2.27,.36-3.62,.46-1.35,.1-2.83,.15-4.44,.15h-2.96V6.04h9.16v1.81Zm3.42,15.81V4.3h2.08V23.66h-2.08Z"/>
    <path class="cls-3" d="M162.21,14.21v-3.93h-3.93c-.06,.45-.2,.89-.43,1.32-.23,.43-.54,.82-.95,1.15-.4,.34-.88,.61-1.45,.81-.57,.2-1.21,.3-1.94,.3-.8,0-1.5-.12-2.1-.36-.6-.24-1.1-.55-1.5-.93-.4-.38-.7-.82-.9-1.3-.2-.48-.3-.97-.3-1.46v-.8c0-.49,.1-.98,.3-1.46,.2-.48,.5-.92,.9-1.3,.4-.38,.9-.7,1.5-.93,.6-.24,1.3-.36,2.1-.36,.73,0,1.37,.1,1.93,.3,.56,.2,1.04,.47,1.44,.8,.4,.33,.71,.7,.95,1.12,.23,.42,.38,.85,.45,1.3h3.93V4.3h2.06V14.21h-2.06Zm-8.69-2.12c.45,0,.85-.07,1.2-.21s.64-.32,.88-.55c.24-.22,.42-.48,.55-.76,.13-.28,.19-.57,.19-.86v-.59c0-.29-.06-.58-.19-.86-.12-.28-.31-.53-.55-.75-.24-.22-.53-.4-.88-.54-.35-.14-.75-.21-1.2-.21s-.85,.07-1.2,.21c-.35,.14-.64,.32-.88,.54-.24,.22-.42,.47-.55,.75-.12,.28-.19,.57-.19,.86v.59c0,.29,.06,.58,.19,.86,.13,.28,.31,.53,.55,.76,.24,.22,.53,.41,.88,.55s.75,.21,1.2,.21Zm10.75,3.07v8.5h-12.07V15.16h2.06v2.46h7.96v-2.46h2.06Zm-2.06,6.74v-2.54h-7.96v2.54h7.96Z"/>
  </g>
</svg>